<?xml version="1.0" standalone="no"?>
<!DOCTYPE svg PUBLIC "-//W3C//DTD SVG 20010904//EN"
 "http://www.w3.org/TR/2001/REC-SVG-20010904/DTD/svg10.dtd">
<svg version="1.0" xmlns="http://www.w3.org/2000/svg"
 width="578.000000pt" height="578.000000pt" viewBox="0 0 578.000000 578.000000"
 preserveAspectRatio="xMidYMid meet">
<metadata>
Created by potrace 1.11, written by Peter Selinger 2001-2013
</metadata>
<g transform="translate(0.000000,578.000000) scale(0.100000,-0.100000)"
fill="#000000" stroke="none">
<path d="M2590 3210 l0 -2090 -1060 0 -1060 0 0 -561 0 -560 1618 3 c1593 3
1617 3 1640 23 l22 19 0 2063 0 2063 558 0 c306 0 574 3 595 6 l37 7 0 558 0
559 -1175 0 -1175 0 0 -2090z"/>
<path d="M470 2477 l0 -1024 263 -6 c144 -4 360 -7 480 -7 l217 0 0 1030 0
1030 -480 0 -480 0 0 -1023z"/>
</g>
</svg>
